<svg width="1440" height="701" viewBox="0 0 1440 701" fill="none" xmlns="http://www.w3.org/2000/svg">
<g opacity="0.4">
<path d="M-83.8249 621.516L-63.6033 615.138L-43.5786 608.437L-23.7869 601.352L-4.25868 593.835L15.0598 585.973L34.1131 577.675L52.9802 569.07L71.6724 560.178L90.1985 551.014L108.563 541.583L126.762 531.881L144.785 521.889L162.611 511.573L180.21 500.883L197.541 489.755L214.562 478.115L231.229 465.894L247.5 453.022L263.344 439.449L278.749 425.153L293.714 410.134L308.251 394.411L322.382 378.021L336.141 361.02L349.569 343.475L362.714 325.463L375.58 306.995L388.206 288.131L400.584 268.859L412.763 249.26L424.816 229.454L436.84 209.6L448.952 189.891L461.283 170.543L473.972 151.782L487.151 133.827L500.939 116.873L515.421 101.06L530.644 86.4664L546.62 73.1086L563.326 60.9517L580.718 49.9222L598.736 39.9232L617.273 30.7761L636.133 22.1594L655.074 13.6762L673.849 4.9213L692.237 -4.47026L710.061 -14.7895L727.201 -26.2332L743.601 -38.8934L759.269 -52.7569L774.273 -67.7104L788.738 -83.5524L802.763 -100.116L816.66 -116.891L830.587 -133.616L844.765 -149.929L859.4 -165.49L874.656 -180.03L890.637 -193.379L907.429 -205.395L925.022 -216.094L943.366 -225.557L962.385 -233.912L981.976 -241.327L1002.01 -248.006L1022.36 -254.175L1042.87 -260.077L1063.4 -265.956L1083.79 -272.047L1103.93 -278.559L1123.75 -285.605L1143.23 -293.199L1162.41 -301.297L1181.32 -309.826L1200.02 -318.703L1218.56 -327.845L1236.98 -337.178L1255.33 -346.641L1273.62 -356.185L1291.89 -365.781L1310.13 -375.419" stroke="white" stroke-miterlimit="10"/>
<path d="M-72.0119 640.411L-51.7657 634.077L-31.6636 627.506L-11.7492 620.627L7.93704 613.372L27.3595 605.684L46.5988 597.695L65.5717 589.269L84.3418 580.509L102.908 571.413L121.266 561.977L139.41 552.187L157.324 542.02L174.989 531.445L192.377 520.414L209.456 508.875L226.191 496.771L242.552 484.052L258.518 470.683L274.073 456.641L289.222 441.93L303.976 426.57L318.356 410.596L332.394 394.059L346.129 377.026L359.607 359.569L372.874 341.765L385.909 323.582L398.761 305.096L411.391 286.247L423.839 267.097L436.165 247.748L448.455 228.339L460.816 209.048L473.37 190.073L486.247 171.628L499.575 153.925L513.469 137.153L528.019 121.457L543.274 106.921L559.247 93.5655L575.926 81.3688L593.277 70.2761L611.253 60.2127L629.761 51.0206L648.613 42.3961L667.576 33.9524L686.404 25.2887L704.877 16.04L722.814 5.91118L740.092 -5.30113L756.649 -17.6983L772.457 -31.3251L787.618 -46.016L802.224 -61.6185L816.433 -77.8745L830.434 -94.4704L844.441 -111.059L858.668 -127.284L873.323 -142.806L888.569 -157.357L904.513 -170.762L921.243 -182.874L938.753 -193.704L957 -203.324L975.907 -211.858L995.375 -219.473L1015.28 -226.366L1035.49 -232.763L1055.85 -238.903L1076.23 -245.028L1096.47 -251.373L1116.44 -258.163L1136.03 -265.571L1155.23 -273.617L1174.07 -282.265L1192.59 -291.433L1210.86 -301.019L1228.94 -310.917L1246.89 -321.023L1264.77 -331.245L1282.62 -341.508L1300.49 -351.754L1318.38 -361.953" stroke="white" stroke-miterlimit="10"/>
<path d="M-59.9562 659.787L-39.6902 653.487L-19.5197 647.031L0.503754 640.332L20.3299 633.309L39.9124 625.886L59.2785 618.108L78.3388 609.827L97.1679 601.166L115.755 592.107L134.088 582.632L152.156 572.721L169.943 562.349L187.431 551.485L204.596 540.089L221.412 528.121L237.854 515.539L253.909 502.32L269.57 488.454L284.844 473.954L299.748 458.844L314.304 443.163L328.543 426.961L342.506 410.306L356.238 393.27L369.785 375.932L383.194 358.366L396.414 340.49L409.509 322.409L422.411 304.01L435.144 285.335L447.759 266.465L460.33 247.521L472.95 228.661L485.734 210.067L498.801 191.94L512.275 174.481L526.268 157.876L540.873 142.275L556.145 127.77L572.103 114.393L588.743 102.136L606.046 90.9668L623.973 80.8249L642.44 71.5691L661.274 62.9165L680.248 54.4931L699.121 45.9039L717.67 36.7842L735.715 26.8352L753.118 15.8314L769.814 3.66664L785.79 -9.68159L801.096 -24.1319L815.834 -39.5126L830.158 -55.576L844.251 -72.0168L858.323 -88.4935L872.588 -104.653L887.251 -120.158L902.476 -134.74L918.374 -148.217L935.034 -160.441L952.457 -171.412L970.601 -181.198L989.395 -189.916L1008.74 -197.729L1028.52 -204.832L1048.59 -211.448L1068.82 -217.814L1089.05 -224.172L1109.13 -230.768L1128.92 -237.855L1148.3 -245.618L1167.2 -254.153L1185.68 -263.386L1203.79 -273.232L1221.6 -283.569L1239.19 -294.266L1256.64 -305.191L1274.03 -316.221L1291.41 -327.252L1308.85 -338.201L1326.37 -349.013" stroke="white" stroke-miterlimit="10"/>
<path d="M-47.6244 679.616L-27.348 673.334L-7.12304 666.969L12.9912 660.421L32.9348 653.593L52.6513 646.392L72.09 638.735L91.2836 630.675L110.153 622.083L128.742 613.03L147.033 603.487L165.01 593.429L182.656 582.828L199.955 571.656L216.887 559.881L233.434 547.474L249.583 534.413L265.333 520.698L280.7 506.351L295.705 491.412L310.378 475.926L324.752 459.951L338.87 443.553L352.778 426.811L366.526 409.807L380.163 392.62L393.734 375.324L407.153 357.78L420.509 340.131L433.698 322.208L446.732 304.031L459.65 285.662L472.511 267.201L485.4 248.785L498.416 230.579L511.674 212.77L525.29 195.548L539.375 179.096L554.023 163.57L569.299 149.075L585.231 135.657L601.826 123.329L619.075 112.077L636.945 101.843L655.36 92.5035L674.162 83.7999L693.132 75.3738L712.036 66.8378L730.651 57.8268L748.788 48.032L766.309 37.2254L783.134 25.2738L799.242 12.1458L814.675 -2.09073L829.53 -17.2763L843.953 -33.1733L858.123 -49.4844L872.245 -65.8739L886.533 -81.9922L901.191 -97.5025L916.383 -112.134L932.225 -125.7L948.807 -138.049L966.134 -149.175L984.172 -159.134L1002.85 -168.04L1022.07 -176.049L1041.73 -183.355L1061.67 -190.177L1081.77 -196.752L1101.87 -203.326L1121.81 -210.165L1141.42 -217.54L1160.55 -225.697L1179.19 -234.67L1197.3 -244.514L1214.98 -255.061L1232.31 -266.173L1249.4 -277.695L1266.33 -289.466L1283.21 -301.335L1300.1 -313.168L1317.09 -324.855L1334.21 -336.321" stroke="white" stroke-miterlimit="10"/>
<path d="M-35.0522 699.833L-14.7786 693.549L5.48296 687.245L25.6657 680.812L45.7011 674.137L65.5226 667.11L85.07 659.633L104.292 651.622L123.231 643.147L141.806 634.073L160.04 624.44L177.914 614.214L195.409 603.368L212.511 591.876L229.206 579.715L245.485 566.87L261.344 553.337L276.8 539.141L291.885 524.336L306.637 508.984L321.096 493.152L335.309 476.914L349.325 460.354L363.199 443.56L376.984 426.62L390.73 409.617L404.48 392.62L418.114 375.432L431.744 358.237L445.232 340.811L458.58 323.152L471.809 305.301L484.969 287.334L498.13 269.369L511.381 251.554L524.828 234.058L538.58 217.064L552.748 200.753L567.429 185.285L582.698 170.783L598.597 157.314L615.145 144.911L632.338 133.568L650.143 123.231L668.494 113.789L687.248 105.009L706.199 96.5539L725.117 88.0441L743.779 79.113L761.992 69.4439L779.609 58.7973L796.541 47.027L812.762 34.0875L828.305 20.0338L843.258 5.01328L857.762 -10.7465L871.992 -26.9559L886.148 -43.2851L900.443 -59.3877L915.081 -74.9278L930.227 -89.6315L946.001 -103.305L962.495 -115.796L979.719 -127.088L997.644 -137.23L1016.2 -146.327L1035.31 -154.533L1054.84 -162.034L1074.67 -169.047L1094.65 -175.811L1114.63 -182.584L1134.42 -189.656L1153.86 -197.311L1172.79 -205.803L1191.18 -215.185L1208.9 -225.651L1226.15 -236.905L1243.01 -248.798L1259.59 -261.152L1276 -273.779L1292.35 -286.499L1308.75 -299.15L1325.27 -311.597L1341.97 -323.742" stroke="white" stroke-miterlimit="10"/>
<path d="M-22.2724 720.384L-2.01812 714.07L18.2586 707.793L38.4844 701.432L58.5824 694.862L78.4775 687.958L98.1004 680.607L117.391 672.712L136.341 664.256L154.886 655.136L173.051 645.391L190.811 634.982L208.15 623.881L225.053 612.066L241.513 599.522L257.527 586.247L273.107 572.259L288.283 557.607L303.104 542.373L317.622 526.641L331.888 510.496L345.96 494.031L359.896 477.344L373.756 460.533L387.598 443.691L401.472 426.901L415.417 410.228L429.278 393.417L443.192 376.695L456.99 359.781L470.659 342.654L484.207 325.33L497.669 307.865L511.103 290.353L524.588 272.925L538.219 255.737L552.101 238.962L566.344 222.778L581.051 207.356L596.308 192.838L612.173 179.318L628.674 166.841L645.806 155.402L663.541 144.951L681.815 135.387L700.507 126.507L719.422 117.994L738.334 109.478L757.022 100.591L775.287 91.0117L792.978 80.4888L809.997 68.8639L826.31 56.0782L841.941 42.1735L856.973 27.2857L871.538 11.6321L885.809 -4.50556L899.983 -20.8029L914.268 -36.9169L928.869 -52.5125L943.955 -67.3114L959.649 -81.1123L976.044 -93.7635L993.155 -105.237L1010.96 -115.573L1029.4 -124.868L1048.38 -133.269L1067.8 -140.958L1087.52 -148.15L1107.39 -155.084L1127.26 -162.042L1146.92 -169.331L1166.19 -177.25L1184.93 -186.059L1203 -195.955L1220.5 -206.797L1237.32 -218.75L1253.7 -231.412L1269.78 -244.585L1285.67 -258.057L1301.51 -271.622L1317.41 -285.09L1333.46 -298.303L1349.74 -311.139" stroke="white" stroke-miterlimit="10"/>
<path d="M-9.29571 741.236L10.9198 734.86L31.1874 728.57L51.4279 722.235L71.5574 715.718L91.4928 708.883L111.157 701.602L130.482 693.766L149.414 685.283L167.943 676.14L186.028 666.266L203.669 655.665L220.848 644.305L237.554 632.17L253.785 619.253L269.546 605.567L284.862 591.148L299.777 576.073L314.355 560.444L328.661 544.368L342.757 527.948L356.711 511.294L370.589 494.517L384.457 477.722L398.374 461.01L412.391 444.459L426.543 428.131L440.643 411.718L454.85 395.479L468.964 379.088L482.957 362.5L496.826 345.707L510.591 328.743L524.297 311.683L538.011 294.637L551.822 277.747L565.829 261.181L580.142 245.117L594.871 229.736L610.117 215.204L625.951 201.637L642.404 189.086L659.474 177.547L677.132 166.974L695.321 157.272L713.935 148.266L732.793 139.664L751.679 131.106L770.369 122.226L788.663 112.697L806.404 102.259L823.487 90.741L839.868 78.0722L855.566 64.2812L870.656 49.4922L885.264 33.9126L899.557 17.816L913.729 1.52109L927.987 -14.6324L942.536 -30.3104L957.546 -45.2293L973.146 -59.1806L989.429 -72.0118L1006.42 -83.6841L1024.09 -94.2257L1042.41 -103.726L1061.27 -112.324L1080.57 -120.196L1100.19 -127.554L1119.97 -134.646L1139.72 -141.776L1159.26 -149.266L1178.39 -157.427L1196.95 -166.524L1214.81 -176.757L1231.92 -188.24L1248.5 -200.572L1264.44 -213.973L1280.03 -227.935L1295.43 -242.223L1310.76 -256.607L1326.17 -270.874L1341.76 -284.84L1357.62 -298.365" stroke="white" stroke-miterlimit="10"/>
<path d="M3.81981 762.3L23.9745 755.827L44.2063 749.481L64.4311 743.123L84.5589 736.605L104.5 729.781L124.17 722.513L143.495 714.679L162.414 706.178L180.88 696.934L198.889 686.939L216.406 676.139L233.427 664.522L249.941 652.076L265.952 638.804L281.476 624.732L296.547 609.918L311.225 594.457L325.585 578.475L339.702 562.096L353.653 545.443L367.513 528.64L381.356 511.81L395.252 495.068L409.263 478.513L423.437 462.226L437.806 446.259L452.156 430.261L466.658 414.513L481.09 398.65L495.41 382.602L509.599 366.34L523.664 349.875L537.638 333.259L551.578 316.588L565.563 299.99L579.688 283.625L594.073 267.683L608.828 252.35L624.07 237.815L639.877 224.208L656.283 211.584L673.288 199.943L690.865 189.24L708.96 179.387L727.481 170.232L746.264 161.509L765.1 152.872L783.768 143.959L802.066 134.44L819.832 124.047L836.954 112.598L853.382 100.009L869.125 86.2967L884.252 71.5733L898.883 56.0363L913.179 39.9509L927.333 23.63L941.547 7.4097L956.026 -8.37695L970.945 -23.4408L986.437 -37.5658L1002.59 -50.5981L1019.45 -62.4869L1036.99 -73.2492L1055.17 -82.9647L1073.91 -91.7635L1093.1 -99.8158L1112.62 -107.331L1132.3 -114.573L1151.96 -121.863L1171.38 -129.535L1190.38 -137.91L1208.78 -147.259L1226.47 -157.784L1243.37 -169.601L1259.46 -182.73L1275.2 -196.453L1290.34 -211.154L1305.26 -226.211L1320.13 -241.371L1335.07 -256.399L1350.21 -271.091L1365.66 -285.286" stroke="white" stroke-miterlimit="10"/>
<path d="M17.0574 783.537L37.1278 776.928L57.2956 770.479L77.473 764.045L97.5651 757.472L117.477 750.603L137.118 743.29L156.408 735.402L175.282 726.83L193.689 717.492L211.599 707.339L228.988 696.333L245.852 684.464L262.184 671.722L277.99 658.118L293.294 643.692L308.145 628.52L322.611 612.718L336.778 596.427L350.735 579.789L364.566 562.946L378.356 546.035L392.187 529.191L406.131 512.532L420.251 496.163L434.594 480.16L449.187 464.566L463.794 448.996L478.595 433.742L493.344 418.405L507.988 402.895L522.494 387.158L536.855 371.183L551.091 355.005L565.233 338.671L579.401 322.381L593.654 306.228L608.112 290.413L622.905 275.147L638.149 260.622L653.933 246.982L670.293 234.287L687.233 222.542L704.725 211.705L722.72 201.69L741.134 192.365L759.823 183.49L778.587 174.738L797.209 165.754L815.487 156.205L833.254 145.818L850.392 134.399L866.844 121.853L882.61 108.185L897.754 93.4947L912.389 77.9693L926.671 61.866L940.788 45.4912L954.942 29.1774L969.335 13.2561L984.147 -1.97814L999.515 -16.3014L1015.53 -29.557L1032.24 -41.682L1049.63 -52.6813L1067.67 -62.6236L1086.28 -71.6296L1105.36 -79.862L1124.79 -87.5318L1144.38 -94.9203L1163.95 -102.359L1183.27 -110.195L1202.15 -118.752L1220.42 -128.309L1237.96 -139.074L1254.69 -151.162L1270.6 -164.595L1286.03 -178.825L1300.75 -194.201L1315.24 -209.961L1329.66 -225.836L1344.17 -241.572L1358.9 -256.945L1373.96 -271.778" stroke="white" stroke-miterlimit="10"/>
<path d="M30.3053 804.9L50.2677 798.115L70.3437 791.517L90.4426 784.956L110.466 778.272L130.314 771.3L149.893 763.886L169.117 755.89L187.916 747.197L206.235 737.719L224.037 727.39L241.298 716.176L258.009 704.058L274.167 691.034L289.783 677.12L304.889 662.372L319.543 646.882L333.824 630.78L347.827 614.221L361.649 597.366L375.387 580.372L389.132 563.391L402.971 546.563L416.98 530.016L431.223 513.851L445.744 498.143L460.565 482.925L475.435 467.789L490.53 453.022L505.593 438.202L520.556 423.218L535.278 407.838L549.965 392.402L564.48 376.684L578.868 360.756L593.202 344.742L607.584 328.804L622.131 313.139L636.972 297.955L652.229 283.453L667.993 269.783L684.31 257.019L701.182 245.167L718.588 234.189L736.478 224.006L754.776 214.491L773.354 205.437L792.026 196.536L810.581 187.443L828.816 177.825L846.56 167.403L863.692 155.976L880.145 143.436L895.915 129.775L911.056 115.083L925.675 99.536L939.925 83.3826L953.988 66.9229L968.065 50.4853L982.356 34.4L997.045 18.9661L1012.27 4.41593L1028.14 -9.08943L1044.68 -21.4741L1061.92 -32.7302L1079.81 -42.9148L1098.29 -52.1382L1117.25 -60.5551L1136.58 -68.383L1156.08 -75.9163L1175.56 -83.4959L1194.8 -91.4741L1213.59 -100.182L1231.76 -109.903L1249.18 -120.849L1265.79 -133.141L1281.56 -146.804L1296.54 -161.756L1311.19 -177.25L1325.3 -193.638L1339.32 -210.156L1353.44 -226.535L1367.78 -242.535L1382.47 -257.962" stroke="white" stroke-miterlimit="10"/>
<path d="M43.5534 826.321L63.3836 819.32L83.3396 812.526L103.329 805.786L123.251 798.936L143.003 791.806L162.486 784.237L181.613 776.083L200.309 767.222L218.517 757.56L236.195 747.03L253.319 735.592L269.878 723.227L285.871 709.933L301.312 695.735L316.243 680.698L330.726 664.929L344.849 648.569L358.715 631.787L372.431 614.759L386.1 597.656L399.824 580.64L413.691 563.861L427.783 547.45L442.161 531.508L456.866 516.103L471.916 501.262L487.052 486.563L502.272 472.001L517.673 457.737L532.971 443.303L548.107 428.605L563.053 413.594L577.81 398.275L592.416 382.706L606.935 366.995L621.463 351.299L636.115 335.806L651.018 320.725L666.295 306.259L682.047 292.569L698.322 279.739L715.128 267.779L732.446 256.657L750.229 246.3L768.405 236.586L786.86 227.33L805.422 218.25L823.889 209.013L842.059 199.289L859.759 188.796L876.863 177.324L893.298 164.754L909.051 151.068L924.171 136.343L938.758 120.744L952.959 104.511L966.952 87.9386L980.936 71.3496L995.11 55.073L1009.66 39.4117L1024.73 24.6065L1040.43 10.8252L1056.8 -1.84309L1073.87 -13.3772L1091.6 -23.8214L1109.93 -33.2746L1128.78 -41.885L1148 -49.8783L1167.42 -57.558L1186.82 -65.2704L1205.98 -73.3716L1224.69 -82.197L1242.79 -92.0339L1260.15 -103.099L1276.67 -115.523L1292.35 -129.333L1307.23 -144.456L1321.41 -160.718L1335.47 -177.177L1349.16 -194.253L1362.92 -211.197L1376.93 -227.756L1391.28 -243.733" stroke="white" stroke-miterlimit="10"/>
<path d="M56.8012 847.77L76.4748 840.513L96.2829 833.476L116.132 826.507L135.921 819.439L155.545 812.1L174.903 804.325L193.904 795.965L212.471 786.893L230.544 777.011L248.08 766.249L265.056 754.568L281.46 741.949L297.294 728.395L312.575 713.935L327.349 698.643L341.686 682.634L355.678 666.061L369.435 649.101L383.072 631.945L396.7 614.774L410.425 597.762L424.342 581.064L438.531 564.813L453.054 549.11L467.949 534.017L483.082 519.314L498.479 505.043L514.14 491.206L529.803 477.372L545.376 463.39L560.792 449.152L576.013 434.592L591.031 419.7L605.871 404.518L620.594 389.141L635.285 373.715L650.058 358.421L665.037 343.465L680.347 329.053L696.094 315.355L712.332 302.465L729.074 290.4L746.304 279.136L763.98 268.603L782.032 258.686L800.354 249.213L818.793 239.931L837.154 230.521L855.24 220.66L872.876 210.063L889.933 198.513L906.33 185.884L922.05 172.143L937.132 157.356L951.671 141.68L965.809 125.343L979.718 108.634L993.594 91.8699L1007.64 75.3784L1022.03 59.4649L1036.93 44.3788L1052.44 30.2965L1068.63 17.3212L1085.51 5.48786L1103.07 -5.23437L1121.26 -14.9319L1139.98 -23.7487L1159.1 -31.9179L1178.42 -39.7473L1197.74 -47.5856L1216.84 -55.7904L1235.5 -64.6992L1253.56 -74.6033L1270.88 -85.7256L1287.37 -98.203L1303.01 -112.074L1317.84 -127.273L1331.96 -143.634L1345.81 -160.442L1359.22 -177.979L1372.7 -195.394L1386.41 -212.431L1400.47 -228.887" stroke="white" stroke-miterlimit="10"/>
<path d="M70.0571 869.255L89.5506 861.703L109.184 854.38L128.865 847.135L148.491 839.8L167.957 832.203L187.161 824.175L206.01 815.565L224.424 806.244L242.343 796.11L259.723 785.091L276.538 773.146L292.78 760.263L308.456 746.45L323.587 731.744L338.221 716.223L352.433 700.01L366.319 683.263L379.994 666.169L393.579 648.927L407.19 631.73L420.939 614.757L434.923 598.17L449.157 581.994L463.805 566.495L478.854 551.655L494.312 537.485L509.935 523.586L525.84 510.149L541.77 496.754L557.628 483.239L573.336 469.479L588.846 455.394L604.139 440.954L619.232 426.186L634.175 411.172L649.048 396.042L663.958 380.974L679.028 366.167L694.384 351.83L710.134 338.14L726.342 325.2L743.025 313.038L760.171 301.637L777.743 290.934L795.671 280.814L813.857 271.117L832.161 261.615L850.402 252.009L868.388 241.984L885.944 231.254L902.936 219.6L919.279 206.882L934.95 193.06L949.98 178.189L964.457 162.412L978.517 145.95L992.33 129.081L1006.09 112.121L1019.98 95.3937L1034.21 79.2051L1048.92 63.8134L1064.24 49.4058L1080.22 36.1001L1096.91 23.9454L1114.29 12.9254L1132.31 2.9667L1150.9 -6.07298L1169.9 -14.4306L1189.13 -22.4147L1208.38 -30.3732L1227.42 -38.6628L1246.06 -47.6218L1264.11 -57.5449L1281.43 -68.661L1297.93 -81.1162L1313.59 -94.96L1328.43 -110.139L1342.55 -126.5L1356.1 -143.794L1369.56 -161.254L1382.82 -179.029L1396.27 -196.478L1410.1 -213.32" stroke="white" stroke-miterlimit="10"/>
<path d="M83.303 890.725L102.594 882.841L122.028 875.192L141.514 867.627L160.95 859.981L180.231 852.08L199.255 843.759L217.929 834.862L236.171 825.258L253.92 814.845L271.129 803.547L287.774 791.325L303.849 778.167L319.364 764.091L334.349 749.145L348.854 733.414L362.958 717.024L376.76 700.14L390.377 682.951L403.934 665.664L417.546 648.468L431.327 631.549L445.367 615.054L459.744 599.112L474.516 583.817L489.717 569.228L505.356 555.355L521.208 541.831L537.356 528.793L553.557 515.843L569.706 502.806L585.715 489.54L601.525 475.949L617.108 461.984L632.469 447.656L647.649 433.031L662.72 418.227L677.784 403.411L692.96 388.78L708.376 374.541L724.142 360.877L740.329 347.903L756.96 335.657L774.03 324.131L791.503 313.266L809.313 302.952L827.362 293.033L845.526 283.301L863.638 273.483L881.51 263.272L898.971 252.387L915.884 240.603L932.16 227.775L947.767 213.851L962.733 198.873L977.137 182.976L991.109 166.37L1004.81 149.325L1018.44 132.151L1032.18 115.169L1046.23 98.6852L1060.74 82.9658L1075.84 68.2104L1091.61 54.5517L1108.09 42.054L1125.27 30.7159L1143.13 20.4769L1161.57 11.1959L1180.45 2.63583L1199.58 -5.5091L1218.75 -13.583L1237.76 -21.9399L1256.38 -30.9174L1274.44 -40.813L1291.81 -51.8618L1308.37 -64.2199L1324.09 -77.9499L1339.01 -93.0141L1353.19 -109.273L1366.79 -126.495L1379.98 -144.37L1393.27 -162.107L1406.56 -179.833L1420.2 -196.975" stroke="white" stroke-miterlimit="10"/>
<path d="M96.5092 912.172L115.578 903.923L134.79 895.909L154.057 887.985L173.279 879.988L192.352 871.746L211.175 863.093L229.653 853.876L247.706 843.961L265.27 833.245L282.299 821.651L298.768 809.139L314.672 795.7L330.027 781.361L344.867 766.178L359.25 750.246L373.258 733.697L386.991 716.699L400.569 699.445L414.115 682.141L427.747 664.976L441.569 648.123L455.674 631.734L470.141 615.94L485.031 600.838L500.378 586.486L516.191 572.898L532.267 559.741L548.656 547.098L565.129 534.592L581.571 522.037L597.888 509.276L614.008 496.192L629.893 482.72L645.536 468.854L660.967 454.641L676.253 440.187L691.486 425.65L706.785 411.219L722.275 397.101L738.07 383.484L754.249 370.495L770.841 358.185L787.845 346.55L805.228 335.538L822.927 325.042L840.847 314.909L858.872 304.949L876.845 294.903L894.596 284.493L911.951 273.434L928.773 261.501L944.97 248.542L960.503 234.495L975.392 219.393L989.713 203.357L1003.59 186.589L1017.17 169.351L1030.66 151.945L1044.23 134.689L1058.09 117.892L1072.39 101.823L1087.26 86.6969L1102.81 72.6622L1119.06 59.7987L1136.04 48.1206L1153.71 37.5797L1171.99 28.0371L1190.73 19.2592L1209.76 10.9462L1228.87 2.76004L1247.84 -5.64862L1266.47 -14.6159L1284.58 -24.441L1302.02 -35.3658L1318.68 -47.5569L1334.53 -61.092L1349.57 -75.951L1363.87 -92.0137L1377.57 -109.065L1390.85 -126.805L1404.05 -144.682L1417.23 -162.587L1430.75 -179.941" stroke="white" stroke-miterlimit="10"/>
<path d="M109.741 933.625L128.569 924.981L147.539 916.571L166.566 908.253L185.552 899.87L204.397 891.253L222.998 882.238L241.264 872.673L259.114 862.425L276.482 851.388L293.323 839.485L309.611 826.677L325.343 812.957L340.54 798.358L355.241 782.948L369.51 766.829L383.431 750.139L397.109 733.051L410.662 715.757L424.208 698.452L437.859 681.319L451.719 664.529L465.884 648.239L480.435 632.581L495.433 617.658L510.917 603.531L526.893 590.211L543.187 577.412L559.812 565.155L576.554 553.091L593.292 541.02L609.92 528.77L626.357 516.206L642.552 503.245L658.489 489.859L674.186 476.082L689.701 462.006L705.121 447.774L720.559 433.572L736.14 419.603L751.979 406.059L768.165 393.082L784.733 380.733L801.686 369.015L818.993 357.878L836.593 347.22L854.393 336.891L872.28 326.704L890.114 316.43L907.739 305.815L924.982 294.572L941.705 282.477L957.814 269.373L973.264 255.191L988.069 239.951L1002.3 223.766L1016.07 206.825L1029.53 189.382L1042.86 171.733L1056.27 154.191L1069.92 137.066L1084 120.633L1098.64 105.119L1113.94 90.6893L1129.96 77.4399L1146.71 65.4015L1164.19 54.5373L1182.3 44.713L1200.9 35.702L1219.82 27.2132L1238.86 18.917L1257.81 10.4703L1276.46 1.53996L1294.64 -8.17481L1312.18 -18.9222L1328.99 -30.8804L1345 -44.1428L1360.22 -58.7093L1374.7 -74.4815L1388.57 -91.2471L1401.97 -108.801L1415.12 -126.742L1428.38 -144.526L1441.82 -161.999" stroke="white" stroke-miterlimit="10"/>
<path d="M122.957 955.074L141.528 946.008L160.239 937.173L179.008 928.432L197.741 919.634L216.339 910.614L234.704 901.211L252.744 891.275L270.378 880.674L287.542 869.301L304.188 857.08L320.292 843.97L335.853 829.969L350.896 815.118L365.466 799.493L379.631 783.202L393.477 766.39L407.113 749.232L420.649 731.911L434.196 714.607L447.863 697.501L461.755 680.764L475.971 664.558L490.595 649.02L505.692 634.258L521.3 620.336L537.429 607.265L553.929 594.805L570.781 582.922L587.787 571.29L604.818 559.7L621.759 547.962L638.517 535.923L655.029 523.483L671.268 510.594L687.244 497.273L703.001 483.595L718.623 469.694L734.217 455.747L749.905 441.954L765.807 428.513L782.018 415.579L798.582 403.221L815.501 391.448L832.749 380.214L850.265 369.419L867.96 358.917L885.722 348.526L903.425 338.038L920.915 327.2L938.043 315.769L954.663 303.504L970.676 290.246L986.037 275.917L1000.75 260.529L1014.88 244.183L1028.54 227.059L1041.87 209.4L1055.05 191.496L1068.27 173.657L1081.72 156.192L1095.57 139.38L1109.96 123.463L1125 108.62L1140.78 94.9645L1157.3 82.5448L1174.56 71.3352L1192.49 61.2086L1210.94 51.9486L1229.75 43.2753L1248.72 34.8695L1267.65 26.3956L1286.34 17.5245L1304.61 7.95446L1322.29 -2.56907L1339.27 -14.236L1355.49 -27.1572L1370.93 -41.3535L1385.64 -56.7511L1399.72 -73.1843L1413.31 -90.417L1426.62 -108.102L1439.88 -125.891L1453.36 -143.295" stroke="white" stroke-miterlimit="10"/>
<path d="M136.174 976.522L154.473 967.011L172.91 957.727L191.407 948.539L209.872 939.301L228.21 929.855L246.326 920.042L264.128 909.717L281.537 898.747L298.489 887.025L314.935 874.477L330.854 861.063L346.248 846.787L361.143 831.694L375.591 815.868L389.661 799.423L403.446 782.51L417.049 765.297L430.57 747.952L444.115 730.645L457.792 713.555L471.709 696.857L485.965 680.717L500.651 665.281L515.833 650.659L531.553 636.919L547.82 624.076L564.514 611.932L581.583 600.404L598.845 589.192L616.163 578.073L633.414 566.843L650.493 555.332L667.327 543.418L683.876 531.037L700.138 518.186L716.152 504.927L731.99 491.38L747.755 477.714L763.567 464.124L779.552 450.819L795.811 437.963L812.391 425.634L829.299 413.84L846.507 402.541L863.958 391.64L881.566 380.994L899.219 370.425L916.796 359.73L934.169 348.699L951.17 337.06L967.685 324.624L983.602 311.206L998.869 296.724L1013.49 281.181L1027.52 264.667L1041.06 247.351L1054.25 229.468L1067.27 211.301L1080.31 193.156L1093.54 175.339L1107.15 158.139L1121.29 141.806L1136.07 126.534L1151.59 112.454L1167.87 99.6332L1184.91 88.0565L1202.63 77.6075L1220.92 68.0826L1239.62 59.2153L1258.52 50.6983L1277.44 42.2051L1296.18 33.4113L1314.55 24.0148L1332.39 13.7547L1349.58 2.42901L1366.05 -10.091L1381.75 -23.8489L1396.74 -38.7911L1411.07 -54.8103L1424.9 -71.6451L1438.42 -89.0012L1451.82 -106.542L1465.35 -123.881" stroke="white" stroke-miterlimit="10"/>
<path d="M149.413 998.031L167.43 988.056L185.581 978.302L203.793 968.647L221.978 958.95L240.045 949.058L257.901 938.818L275.456 928.087L292.632 916.734L309.364 904.653L325.609 891.772L341.344 878.057L356.575 863.514L371.332 848.194L385.668 832.184L399.658 815.605L413.393 798.608L426.965 781.346L440.47 763.973L454.008 746.653L467.687 729.565L481.617 712.889L495.902 696.796L510.637 681.439L525.891 666.934L541.709 653.354L558.101 640.715L574.971 628.859L592.244 617.665L609.75 606.854L627.348 596.192L644.903 585.46L662.301 574.472L679.458 563.087L696.32 551.22L712.878 538.852L729.157 526.028L745.224 512.856L761.176 499.496L777.129 486.136L793.22 473.005L809.551 460.266L826.173 448.004L843.092 436.229L860.284 424.903L877.693 413.931L895.233 403.175L912.798 392.46L930.268 381.588L947.516 370.353L964.403 358.526L980.817 345.924L996.638 332.348L1011.81 317.711L1026.34 302.008L1040.26 285.321L1053.68 267.808L1066.73 249.696L1079.59 231.258L1092.43 212.799L1105.45 194.625L1118.82 177.029L1132.7 160.269L1147.21 144.556L1162.46 130.036L1178.48 116.795L1195.29 104.831L1212.81 94.0398L1230.93 84.2341L1249.49 75.1623L1268.33 66.5305L1287.24 58.0224L1306.03 49.3191L1324.52 40.1185L1342.54 30.1538L1359.97 19.2103L1376.71 7.14109L1392.73 -6.11057L1408.01 -20.5641L1422.65 -36.0744L1436.77 -52.4445L1450.53 -69.4056L1464.12 -86.639L1477.75 -103.808" stroke="white" stroke-miterlimit="10"/>
<path d="M162.686 1019.58L180.41 1009.13L198.265 998.889L216.181 988.75L234.077 978.577L251.861 968.22L269.447 957.539L286.747 946.389L303.683 934.642L320.193 922.197L336.236 908.985L351.793 894.977L366.87 880.182L381.5 864.652L395.737 848.48L409.659 831.79L423.351 814.722L436.894 797.411L450.377 780.002L463.9 762.657L477.571 745.557L491.504 728.884L505.807 712.82L520.578 697.521L535.891 683.113L551.792 669.669L568.293 657.209L585.32 645.611L602.782 634.726L620.519 624.293L638.385 614.07L656.235 603.823L673.948 593.349L691.424 582.488L708.602 571.138L725.459 559.261L742.013 546.887L758.321 534.111L774.475 521.081L790.606 508.014L806.809 495.066L823.237 482.486L839.926 470.333L856.883 458.621L874.085 447.309L891.475 436.307L908.972 425.479L926.47 414.655L943.854 403.641L960.999 392.238L977.788 380.249L994.09 367.463L1009.82 353.736L1024.9 338.947L1039.33 323.087L1053.15 306.226L1066.44 288.516L1079.36 270.172L1092.05 251.462L1104.7 232.686L1117.5 214.152L1130.62 196.157L1144.24 178.967L1158.48 162.805L1173.45 147.834L1189.21 134.156L1205.77 121.787L1223.07 110.637L1241.01 100.535L1259.44 91.2479L1278.21 82.4958L1297.11 73.9738L1315.96 65.3693L1334.58 56.3806L1352.8 46.735L1370.47 36.2057L1387.51 24.6268L1403.85 11.9043L1419.49 -1.97621L1434.47 -16.923L1448.91 -32.7707L1462.94 -49.2785L1476.75 -66.1478L1490.55 -83.0503" stroke="white" stroke-miterlimit="10"/>
<path d="M176.016 1041.23L193.438 1030.28L210.982 1019.53L228.589 1008.88L246.184 998.216L263.68 987.387L280.99 976.252L298.029 964.674L314.723 952.529L331.013 939.723L346.86 926.19L362.247 911.902L377.181 896.872L391.697 881.155L405.85 864.844L419.716 848.061L433.366 830.926L446.877 813.561L460.332 796.104L473.83 778.72L487.484 761.589L501.408 744.902L515.717 728.846L530.511 713.586L545.868 699.25L561.839 685.919L578.434 673.612L595.597 662.238L613.231 651.634L631.183 641.553L649.301 631.745L667.436 621.964L685.453 611.989L703.244 601.644L720.736 590.808L737.895 579.426L754.729 567.512L771.289 555.147L787.658 542.47L803.971 529.701L820.327 517.002L836.879 504.625L853.662 492.627L870.685 481.021L887.923 469.769L905.321 458.78L922.8 447.923L940.256 437.029L957.577 425.912L974.642 414.376L991.335 402.231L1007.55 389.307L1023.18 375.419L1038.18 360.488L1052.51 344.475L1066.23 327.444L1079.41 309.536L1092.18 290.96L1104.71 271.979L1117.16 252.886L1129.74 233.991L1142.62 215.595L1155.98 197.973L1169.94 181.357L1184.63 165.925L1200.12 151.799L1216.42 139.008L1233.49 127.482L1251.24 117.07L1269.54 107.556L1288.22 98.6753L1307.11 90.1363L1326.03 81.633L1344.78 72.8647L1363.2 63.553L1381.15 53.4589L1398.5 42.3982L1415.19 30.2462L1431.2 16.975L1446.55 2.63295L1461.33 -12.6471L1475.67 -28.6538L1489.74 -45.111L1503.72 -61.7009" stroke="white" stroke-miterlimit="10"/>
<path d="M189.388 1062.95L206.488 1051.47L223.715 1040.2L241.009 1029.04L258.296 1017.87L275.495 1006.55L292.523 994.954L309.3 982.945L325.755 970.409L341.832 957.252L357.494 943.415L372.724 928.869L387.531 913.63L401.949 897.752L416.033 881.327L429.85 864.464L443.461 847.263L456.934 829.835L470.352 812.318L483.817 794.877L497.442 777.699L511.347 760.98L525.649 744.913L540.454 729.67L555.843 715.386L571.868 702.143L588.541 689.964L605.82 678.779L623.607 668.426L641.755 658.666L660.109 649.245L678.513 639.903L696.822 630.408L714.92 620.565L732.721 610.236L750.182 599.348L767.301 587.902L784.121 575.963L800.717 563.658L817.232 551.22L833.766 538.812L850.468 526.681L867.374 514.883L884.49 503.43L901.792 492.283L919.227 481.354L936.714 470.51L954.155 459.59L971.438 448.412L988.447 436.783L1005.07 424.52L1021.2 411.456L1036.75 397.437L1051.67 382.379L1065.92 366.223L1079.53 349.028L1092.6 330.928L1105.23 312.124L1117.59 292.873L1129.86 273.467L1142.22 254.215L1154.86 235.421L1167.95 217.367L1181.64 200.294L1196.04 184.397L1211.25 169.813L1227.29 156.588L1244.12 144.673L1261.67 133.936L1279.82 124.182L1298.42 115.163L1317.3 106.6L1336.28 98.1943L1355.16 89.6473L1373.79 80.6753L1392.01 71.0279L1409.69 60.4962L1426.74 48.9442L1443.14 36.3061L1458.88 22.5976L1474.02 7.91875L1488.69 -7.54905L1503.03 -23.553L1517.23 -39.7877" stroke="white" stroke-miterlimit="10"/>
<path d="M202.813 1084.74L219.586 1072.73L236.483 1060.91L253.451 1049.22L270.422 1037.53L287.32 1025.72L304.067 1013.66L320.587 1001.23L336.813 988.316L352.69 974.831L368.181 960.714L383.273 945.94L397.971 930.523L412.31 914.515L426.341 898.003L440.116 881.07L453.685 863.8L467.115 846.301L480.488 828.711L493.909 811.198L507.495 793.955L521.37 777.186L535.655 761.091L550.459 745.846L565.866 731.591L581.931 718.414L598.667 706.338L616.041 695.309L633.96 685.173L652.284 675.701L670.854 666.633L689.509 657.703L708.095 648.662L726.487 639.302L744.59 629.467L762.35 619.07L779.757 608.094L796.843 596.592L813.678 584.679L830.415 572.604L847.151 560.528L864.029 548.685L881.084 537.133L898.322 525.879L915.717 514.884L933.216 504.06L950.741 493.276L968.193 482.375L985.465 471.178L1002.44 459.499L1019.02 447.159L1035.09 433.995L1050.58 419.873L1065.42 404.689L1079.59 388.406L1093.11 371.059L1106.07 352.776L1118.57 333.753L1130.77 314.241L1142.85 294.53L1154.99 274.928L1167.4 255.742L1180.22 237.258L1193.64 219.73L1207.76 203.366L1222.68 188.319L1238.45 174.652L1255.04 162.335L1272.38 151.261L1290.38 141.253L1308.89 132.083L1327.75 123.485L1346.77 115.168L1365.79 106.836L1384.63 98.2002L1403.11 88.9964L1421.12 79.0039L1438.55 68.0583L1455.33 56.0645L1471.47 43.0061L1487 28.9509L1502.01 14.0502L1516.65 -1.46653L1531.09 -17.3068" stroke="white" stroke-miterlimit="10"/>
</g>
</svg>
