<svg width="1440" height="695" viewBox="0 0 1440 695" fill="none" xmlns="http://www.w3.org/2000/svg">
<path d="M-62.0544 612.558L-42.3748 606.351L-22.8869 599.829L-3.62569 592.935L15.3791 585.619L34.1798 577.967L52.7223 569.891L71.0837 561.518L89.2749 552.864L107.304 543.945L125.176 534.767L142.888 525.325L160.428 515.601L177.776 505.562L194.903 495.159L211.77 484.328L228.334 473L244.555 461.108L260.39 448.581L275.809 435.371L290.801 421.458L305.365 406.842L319.512 391.54L333.264 375.589L346.654 359.044L359.723 341.969L372.515 324.44L385.037 306.467L397.325 288.109L409.37 269.353L421.223 250.279L432.953 231.005L444.655 211.683L456.442 192.503L468.443 173.673L480.791 155.414L493.617 137.941L507.035 121.441L521.129 106.052L535.945 91.8497L551.492 78.8499L567.75 67.0189L584.676 56.285L602.211 46.5541L620.251 37.6521L638.605 29.2664L657.039 21.0106L675.311 12.4904L693.206 3.35053L710.552 -6.69215L727.233 -17.829L743.193 -30.15L758.441 -43.6419L773.043 -58.1945L787.12 -73.6119L800.77 -89.7311L814.294 -106.057L827.848 -122.333L841.645 -138.209L855.888 -153.353L870.735 -167.504L886.288 -180.495L902.63 -192.188L919.751 -202.601L937.604 -211.81L956.113 -219.941L975.178 -227.158L994.68 -233.657L1014.48 -239.662L1034.44 -245.405L1054.42 -251.126L1074.27 -257.055L1093.87 -263.392L1113.15 -270.248L1132.11 -277.639L1150.77 -285.52L1169.18 -293.821L1187.38 -302.459L1205.42 -311.356L1223.35 -320.439L1241.2 -329.648L1259.01 -338.937L1276.78 -348.276L1294.53 -357.656" stroke="#E2E2E2" stroke-miterlimit="10"/>
<path d="M-50.5588 630.947L-30.8552 624.782L-11.2919 618.387L8.08869 611.692L27.2473 604.632L46.1491 597.15L64.8727 589.375L83.3371 581.175L101.604 572.65L119.672 563.798L137.539 554.615L155.196 545.087L172.63 535.193L189.821 524.901L206.744 514.166L223.365 502.936L239.651 491.156L255.574 478.778L271.111 465.768L286.25 452.102L300.993 437.785L315.351 422.837L329.345 407.291L343.007 391.198L356.374 374.621L369.491 357.632L382.402 340.305L395.088 322.609L407.595 304.619L419.887 286.275L432.001 267.638L443.997 248.808L455.958 229.92L467.987 211.145L480.205 192.679L492.736 174.729L505.707 157.5L519.229 141.178L533.389 125.903L548.234 111.756L563.78 98.7584L580.012 86.8887L596.897 76.0933L614.392 66.2996L632.403 57.3539L650.751 48.9605L669.205 40.7432L687.529 32.3117L705.506 23.3109L722.963 13.4536L739.777 2.54183L755.89 -9.52307L771.275 -22.7845L786.03 -37.0817L800.244 -52.266L814.072 -68.0863L827.698 -84.2373L841.329 -100.381L855.175 -116.171L869.438 -131.277L884.275 -145.438L899.791 -158.484L916.073 -170.271L933.114 -180.811L950.872 -190.173L969.272 -198.479L988.217 -205.889L1007.59 -212.598L1027.26 -218.823L1047.07 -224.799L1066.9 -230.76L1086.6 -236.934L1106.03 -243.542L1125.1 -250.752L1143.79 -258.582L1162.12 -266.998L1180.15 -275.92L1197.93 -285.25L1215.52 -294.882L1232.99 -304.717L1250.39 -314.665L1267.77 -324.653L1285.15 -334.625L1302.57 -344.551" stroke="#E2E2E2" stroke-miterlimit="10"/>
<path d="M-38.825 649.803L-19.1023 643.672L0.527644 637.388L20.0144 630.869L39.3091 624.035L58.3667 616.811L77.2137 609.241L95.7631 601.182L114.088 592.753L132.176 583.937L150.018 574.716L167.602 565.07L184.912 554.977L201.931 544.403L218.636 533.313L235.001 521.666L251.003 509.422L266.627 496.556L281.868 483.063L296.734 468.951L311.238 454.246L325.403 438.985L339.261 423.218L352.85 407.009L366.213 390.43L379.397 373.556L392.447 356.461L405.312 339.064L418.057 321.468L430.613 303.562L443.005 285.387L455.282 267.023L467.515 248.587L479.798 230.232L492.238 212.137L504.955 194.496L518.068 177.505L531.686 161.345L545.9 146.162L560.762 132.046L576.293 119.027L592.487 107.099L609.325 96.2293L626.772 86.3592L644.744 77.3515L663.074 68.9308L681.539 60.7332L699.905 52.3742L717.958 43.499L735.519 33.8166L752.456 23.1078L768.704 11.2691L784.252 -1.72133L799.147 -15.7843L813.491 -30.7527L827.43 -46.3856L841.146 -62.3857L854.841 -78.4207L868.723 -94.1474L882.993 -109.237L897.81 -123.427L913.282 -136.543L929.496 -148.439L946.451 -159.117L964.109 -168.64L982.399 -177.125L1001.23 -184.728L1020.47 -191.641L1040.01 -198.079L1059.69 -204.275L1079.38 -210.463L1098.93 -216.881L1118.18 -223.779L1137.04 -231.334L1155.44 -239.64L1173.43 -248.626L1191.05 -258.207L1208.38 -268.267L1225.5 -278.678L1242.48 -289.31L1259.4 -300.044L1276.32 -310.779L1293.29 -321.435L1310.34 -331.958" stroke="#E2E2E2" stroke-miterlimit="10"/>
<path d="M-26.8236 669.1L-7.09074 662.987L12.5921 656.792L32.1672 650.42L51.5763 643.775L70.7643 636.767L89.682 629.315L108.361 621.471L126.725 613.109L144.815 604.299L162.616 595.012L180.111 585.224L197.285 574.907L214.12 564.034L230.598 552.574L246.701 540.5L262.417 527.789L277.746 514.442L292.7 500.48L307.303 485.941L321.583 470.87L335.572 455.323L349.311 439.365L362.846 423.072L376.226 406.523L389.497 389.797L402.704 372.965L415.764 355.891L428.762 338.715L441.597 321.272L454.282 303.583L466.854 285.706L479.37 267.74L491.913 249.817L504.581 232.1L517.484 214.767L530.734 198.007L544.442 181.997L558.697 166.887L573.564 152.78L589.068 139.722L605.218 127.724L622.006 116.773L639.397 106.814L657.318 97.7248L675.616 89.2546L694.078 81.0543L712.475 72.747L730.59 63.9776L748.242 54.4454L765.293 43.9284L781.667 32.2972L797.343 19.5211L812.362 5.66613L826.82 -9.11237L840.855 -24.5833L854.646 -40.4572L868.39 -56.4073L882.294 -72.0936L896.559 -87.1882L911.345 -101.428L926.762 -114.63L942.899 -126.648L959.762 -137.476L977.316 -147.167L995.494 -155.835L1014.2 -163.63L1033.33 -170.74L1052.74 -177.379L1072.3 -183.777L1091.86 -190.175L1111.26 -196.831L1130.35 -204.009L1148.97 -211.947L1167.11 -220.679L1184.73 -230.26L1201.93 -240.523L1218.8 -251.338L1235.43 -262.551L1251.91 -274.006L1268.34 -285.557L1284.78 -297.073L1301.31 -308.447L1317.97 -319.605" stroke="#E2E2E2" stroke-miterlimit="10"/>
<path d="M-14.5887 688.776L5.14144 682.66L24.8599 676.525L44.5017 670.264L64.0001 663.768L83.2903 656.93L102.314 649.653L121.02 641.857L139.452 633.609L157.529 624.778L175.274 615.403L192.669 605.452L209.695 594.896L226.339 583.712L242.587 571.877L258.429 559.376L273.863 546.206L288.905 532.391L303.585 517.982L317.942 503.042L332.014 487.634L345.845 471.832L359.486 455.715L372.987 439.371L386.403 422.886L399.781 406.339L413.162 389.797L426.431 373.069L439.695 356.336L452.822 339.376L465.812 322.192L478.687 304.818L491.494 287.333L504.302 269.85L517.198 252.512L530.284 235.485L543.668 218.947L557.456 203.073L571.744 188.019L586.604 173.906L602.076 160.798L618.18 148.728L634.913 137.689L652.241 127.629L670.099 118.439L688.351 109.895L706.794 101.667L725.205 93.3851L743.367 84.6933L761.091 75.2834L778.236 64.9222L794.715 53.4673L810.501 40.8747L825.627 27.1977L840.18 12.5798L854.294 -2.75752L868.143 -18.5325L881.92 -34.424L895.832 -50.095L910.077 -65.2185L924.817 -79.5281L940.169 -92.8347L956.22 -104.991L972.983 -115.981L990.427 -125.85L1008.49 -134.704L1027.08 -142.69L1046.09 -149.99L1065.39 -156.815L1084.83 -163.398L1104.27 -169.99L1123.54 -176.871L1142.46 -184.321L1160.88 -192.586L1178.77 -201.716L1196.02 -211.902L1212.81 -222.854L1229.21 -234.429L1245.35 -246.451L1261.32 -258.739L1277.24 -271.118L1293.19 -283.43L1309.27 -295.544L1325.53 -307.364" stroke="#E2E2E2" stroke-miterlimit="10"/>
<path d="M-2.15105 708.775L17.5603 702.631L37.2936 696.522L56.9772 690.332L76.5365 683.937L95.8984 677.219L114.995 670.065L133.769 662.381L152.211 654.152L170.259 645.276L187.936 635.792L205.221 625.663L222.095 614.86L238.545 603.361L254.563 591.153L270.149 578.234L285.311 564.621L300.08 550.362L314.504 535.536L328.633 520.225L342.517 504.513L356.211 488.49L369.774 472.25L383.263 455.889L396.733 439.499L410.235 423.159L423.806 406.933L437.296 390.573L450.837 374.299L464.266 357.838L477.568 341.171L490.753 324.311L503.854 307.314L516.928 290.271L530.051 273.311L543.317 256.583L556.827 240.257L570.688 224.508L585.001 209.499L599.849 195.37L615.289 182.213L631.347 170.07L648.021 158.938L665.28 148.767L683.064 139.459L701.255 130.817L719.662 122.532L738.068 114.244L756.255 105.596L774.031 96.273L791.247 86.0322L807.81 74.7189L823.686 62.2758L838.898 48.7438L853.527 34.2551L867.702 19.0211L881.59 3.316L895.384 -12.5445L909.286 -28.2266L923.496 -43.4042L938.178 -57.8064L953.451 -71.2374L969.406 -83.5495L986.059 -94.7158L1003.39 -104.774L1021.33 -113.82L1039.81 -121.996L1058.7 -129.479L1077.89 -136.478L1097.24 -143.227L1116.57 -149.998L1135.7 -157.092L1154.46 -164.799L1172.69 -173.371L1190.28 -183.001L1207.31 -193.553L1223.68 -205.186L1239.62 -217.509L1255.27 -230.328L1270.74 -243.439L1286.15 -256.641L1301.62 -269.748L1317.24 -282.606L1333.09 -295.098" stroke="#E2E2E2" stroke-miterlimit="10"/>
<path d="M10.4778 729.068L30.1514 722.863L49.8757 716.742L69.5737 710.577L89.1636 704.235L108.565 697.583L127.702 690.497L146.509 682.87L164.933 674.615L182.966 665.717L200.566 656.108L217.734 645.791L234.453 634.736L250.711 622.925L266.506 610.355L281.846 597.036L296.751 583.004L311.266 568.332L325.454 553.123L339.375 537.477L353.094 521.498L366.674 505.29L380.18 488.962L393.676 472.618L407.221 456.353L420.862 440.247L434.634 424.356L448.357 408.382L462.182 392.579L475.918 376.628L489.536 360.484L503.034 344.141L516.429 327.632L529.768 311.029L543.115 294.44L556.555 278.003L570.186 261.881L584.116 246.248L598.45 231.279L613.288 217.136L628.698 203.933L644.709 191.718L661.322 180.489L678.507 170.199L696.208 160.757L714.322 151.993L732.676 143.621L751.055 135.292L769.244 126.65L787.048 117.377L804.313 107.218L820.938 96.0094L836.88 83.6801L852.157 70.2587L866.843 55.8661L881.059 40.7041L894.969 25.039L908.762 9.18088L922.638 -6.53963L936.796 -21.7974L951.404 -36.3165L966.586 -49.8938L982.432 -62.381L998.966 -73.7405L1016.17 -83.9995L1033.99 -93.2454L1052.35 -101.613L1071.13 -109.274L1090.22 -116.434L1109.47 -123.337L1128.7 -130.275L1147.71 -137.565L1166.33 -145.506L1184.39 -154.36L1201.77 -164.318L1218.42 -175.494L1234.56 -187.495L1250.07 -200.537L1265.25 -214.124L1280.23 -228.03L1295.15 -242.029L1310.15 -255.913L1325.32 -269.505L1340.76 -282.667" stroke="#E2E2E2" stroke-miterlimit="10"/>
<path d="M23.2414 749.568L42.8559 743.269L62.5454 737.092L82.228 730.904L101.816 724.562L121.223 717.921L140.366 710.847L159.173 703.223L177.585 694.95L195.556 685.954L213.082 676.227L230.129 665.716L246.694 654.411L262.766 642.299L278.348 629.382L293.455 615.687L308.123 601.27L322.407 586.224L336.382 570.67L350.121 554.73L363.698 538.523L377.186 522.171L390.658 505.792L404.182 489.498L417.817 473.388L431.611 457.537L445.595 441.998L459.56 426.428L473.674 411.103L487.719 395.665L501.655 380.048L515.464 364.222L529.152 348.197L542.751 332.027L556.317 315.802L569.927 299.65L583.674 283.723L597.673 268.208L612.033 253.287L626.866 239.141L642.249 225.899L658.216 213.613L674.765 202.284L691.871 191.868L709.481 182.279L727.505 173.37L745.785 164.88L764.116 156.474L782.284 147.801L800.092 138.537L817.381 128.423L834.045 117.281L850.032 105.029L865.353 91.6841L880.074 77.3554L894.313 62.2348L908.226 46.5806L922 30.6971L935.834 14.9116L949.925 -0.451868L964.444 -15.112L979.52 -28.8584L995.245 -41.5413L1011.65 -53.1115L1028.72 -63.5853L1046.41 -73.0404L1064.64 -81.6033L1083.32 -89.4398L1102.32 -96.7532L1121.48 -103.802L1140.61 -110.896L1159.51 -118.363L1178 -126.513L1195.91 -135.611L1213.12 -145.854L1229.56 -157.355L1245.23 -170.131L1260.54 -183.487L1275.28 -197.794L1289.8 -212.447L1304.26 -227.201L1318.81 -241.826L1333.55 -256.124L1348.58 -269.938" stroke="#E2E2E2" stroke-miterlimit="10"/>
<path d="M36.1238 770.236L55.6563 763.804L75.2835 757.528L94.9201 751.267L114.474 744.87L133.852 738.185L152.966 731.067L171.74 723.391L190.108 715.049L208.021 705.962L225.451 696.08L242.374 685.369L258.786 673.819L274.68 661.418L290.062 648.179L304.957 634.139L319.409 619.374L333.487 603.996L347.275 588.141L360.857 571.949L374.318 555.557L387.739 539.1L401.198 522.707L414.769 506.496L428.51 490.565L442.469 474.991L456.671 459.815L470.887 444.662L485.29 429.817L499.644 414.891L513.896 399.797L528.013 384.481L541.989 368.935L555.844 353.19L569.606 337.295L583.395 321.441L597.265 305.721L611.336 290.33L625.732 275.473L640.568 261.338L655.928 248.063L671.85 235.708L688.336 224.278L705.359 213.731L722.871 203.985L740.792 194.91L758.98 186.272L777.241 177.755L795.364 169.012L813.153 159.719L830.443 149.61L847.122 138.498L863.132 126.288L878.476 112.986L893.214 98.6897L907.457 83.5805L921.356 67.9087L935.095 51.9729L948.869 36.0963L962.877 20.6018L977.292 5.7759L992.247 -8.16341L1007.84 -21.0637L1024.1 -32.8637L1041.02 -43.5682L1058.58 -53.244L1076.69 -62.0086L1095.26 -70.0204L1114.16 -77.4846L1133.23 -84.675L1152.27 -91.9147L1171.08 -99.5399L1189.45 -107.868L1207.24 -117.169L1224.3 -127.645L1240.58 -139.41L1256.07 -152.482L1271.08 -166.331L1285.41 -181.294L1299.51 -196.632L1313.55 -212.082L1327.67 -227.395L1342 -242.357L1356.65 -256.792" stroke="#E2E2E2" stroke-miterlimit="10"/>
<path d="M49.0173 791.026L68.4447 784.423L87.9826 778.002L107.543 771.617L127.029 765.112L146.346 758.327L165.399 751.111L184.108 743.33L202.403 734.87L220.232 725.646L237.556 715.594L254.355 704.68L270.618 692.888L286.342 680.212L301.54 666.672L316.241 652.319L330.503 637.244L344.401 621.573L358.028 605.458L371.48 589.055L384.849 572.517L398.226 555.99L411.694 539.614L425.328 523.51L439.189 507.779L453.321 492.491L467.744 477.682L482.216 462.951L496.906 448.58L511.566 434.158L526.128 419.575L540.454 404.608L554.748 389.585L568.874 374.288L582.876 358.788L596.826 343.202L610.822 327.692L624.98 312.446L639.423 297.67L654.271 283.556L669.613 270.253L685.492 257.831L701.912 246.297L718.851 235.613L736.262 225.702L754.069 216.443L772.15 207.631L790.321 198.969L808.378 190.12L826.125 180.76L843.393 170.617L860.066 159.496L876.078 147.292L891.425 133.997L906.16 119.699L920.388 104.569L934.256 88.8485L947.942 72.8301L961.641 56.8331L975.55 41.1789L989.844 26.1587L1004.66 11.9985L1020.1 -1.14486L1036.21 -13.1976L1052.98 -24.152L1070.39 -34.0636L1088.37 -43.0397L1106.83 -51.2311L1125.64 -58.8491L1144.62 -66.1805L1163.58 -73.557L1182.3 -81.3213L1200.58 -89.7959L1218.27 -99.2563L1235.22 -109.908L1251.38 -121.871L1266.73 -135.168L1281.31 -149.72L1295.57 -164.798L1309.3 -180.747L1322.95 -196.822L1336.68 -212.762L1350.64 -228.333L1364.94 -243.346" stroke="#E2E2E2" stroke-miterlimit="10"/>
<path d="M61.9093 811.873L81.208 805.06L100.629 798.447L120.083 791.888L139.471 785.222L158.693 778.283L177.654 770.917L196.269 762.981L214.463 754.358L232.183 744.955L249.387 734.708L266.053 723.576L282.168 711.542L297.732 698.604L312.759 684.787L327.289 670.153L341.385 654.807L355.129 638.885L368.623 622.553L381.971 605.982L395.275 589.337L408.63 572.777L422.126 556.448L435.84 540.476L449.833 524.962L464.144 509.97L478.79 495.527L493.521 481.222L508.332 467.051L523.32 453.168L538.208 439.122L552.939 424.817L567.484 410.209L581.846 395.3L596.06 380.148L610.19 364.859L624.328 349.584L638.588 334.506L653.091 319.829L667.959 305.751L683.289 292.428L699.128 279.941L715.483 268.302L732.337 257.478L749.643 247.398L767.332 237.945L785.292 228.937L803.357 220.1L821.329 211.111L839.012 201.648L856.238 191.436L872.883 180.271L888.877 168.039L904.208 154.719L918.923 140.389L933.119 125.208L946.939 109.411L960.557 93.2821L974.166 77.1378L987.96 61.2975L1002.12 46.056L1016.79 31.6476L1032.06 18.2357L1048 5.90697L1064.61 -5.31797L1081.86 -15.4822L1099.7 -24.682L1118.05 -33.0616L1136.76 -40.8407L1155.65 -48.3145L1174.53 -55.8202L1193.17 -63.7043L1211.39 -72.2931L1229.01 -81.8664L1245.89 -92.6353L1261.97 -104.726L1277.23 -118.166L1291.71 -132.883L1305.51 -148.709L1319.2 -164.728L1332.52 -181.346L1345.92 -197.835L1359.54 -213.95L1373.51 -229.499" stroke="#E2E2E2" stroke-miterlimit="10"/>
<path d="M74.8016 832.747L93.948 825.685L113.225 818.837L132.543 812.055L151.801 805.176L170.899 798.034L189.738 790.467L208.229 782.33L226.298 773.502L243.887 763.884L260.954 753.412L277.474 742.043L293.439 729.763L308.848 716.572L323.72 702.5L338.098 687.618L352.05 672.038L365.667 655.909L379.056 639.404L392.327 622.707L405.59 605.997L418.947 589.44L432.491 573.19L446.3 557.375L460.433 542.093L474.929 527.404L489.657 513.095L504.64 499.206L519.882 485.741L535.125 472.277L550.281 458.67L565.284 444.814L580.096 430.644L594.711 416.151L609.154 401.376L623.482 386.412L637.78 371.399L652.157 356.514L666.734 341.959L681.634 327.934L696.958 314.603L712.762 302.058L729.055 290.317L745.823 279.355L763.026 269.105L780.593 259.453L798.425 250.234L816.369 241.2L834.238 232.043L851.839 222.446L869.003 212.133L885.602 200.893L901.56 188.602L916.858 175.229L931.536 160.839L945.686 145.583L959.444 129.685L972.98 113.423L986.485 97.1083L1000.15 81.0589L1014.16 65.5719L1028.66 50.8902L1043.76 37.1853L1059.51 24.5578L1075.94 13.0417L1093.03 2.60685L1110.73 -6.8307L1128.95 -15.4112L1147.55 -23.3614L1166.36 -30.981L1185.16 -38.6092L1203.74 -46.5941L1221.91 -55.2641L1239.49 -64.9027L1256.34 -75.7269L1272.39 -87.8698L1287.61 -101.369L1302.04 -116.161L1315.79 -132.083L1329.26 -148.441L1342.31 -165.507L1355.43 -182.456L1368.77 -199.036L1382.46 -215.051" stroke="#E2E2E2" stroke-miterlimit="10"/>
<path d="M87.7024 853.657L106.673 846.307L125.781 839.18L144.934 832.129L164.034 824.991L182.978 817.597L201.667 809.785L220.011 801.406L237.932 792.334L255.371 782.472L272.284 771.748L288.649 760.124L304.455 747.585L319.711 734.142L334.436 719.831L348.678 704.726L362.509 688.947L376.023 672.649L389.332 656.014L402.552 639.234L415.799 622.498L429.179 605.98L442.788 589.837L456.641 574.095L470.896 559.012L485.542 544.569L500.586 530.779L515.79 517.253L531.269 504.176L546.772 491.139L562.204 477.987L577.492 464.596L592.585 450.888L607.469 436.835L622.157 422.463L636.7 407.851L651.174 393.128L665.684 378.463L680.35 364.053L695.294 350.1L710.623 336.777L726.396 324.184L742.632 312.348L759.318 301.253L776.419 290.836L793.867 280.988L811.565 271.551L829.379 262.304L847.131 252.955L864.634 243.198L881.72 232.757L898.256 221.414L914.162 209.038L929.412 195.586L944.039 181.114L958.129 165.759L971.812 149.738L985.255 133.322L998.642 116.817L1012.17 100.538L1026.01 84.7829L1040.33 69.8038L1055.23 55.7824L1070.79 42.8333L1087.03 31.0044L1103.94 20.2798L1121.49 10.588L1139.57 1.79065L1158.07 -6.34294L1176.78 -14.1131L1195.51 -21.8582L1214.05 -29.9256L1232.18 -38.6445L1249.75 -48.3016L1266.6 -59.1198L1282.66 -71.2411L1297.9 -84.7138L1312.35 -99.4863L1326.09 -115.408L1339.28 -132.239L1352.37 -149.231L1365.27 -166.529L1378.37 -183.51L1391.83 -199.901" stroke="#E2E2E2" stroke-miterlimit="10"/>
<path d="M100.594 874.551L119.368 866.879L138.282 859.434L157.245 852.072L176.16 844.63L194.924 836.942L213.439 828.843L231.612 820.185L249.365 810.839L266.638 800.704L283.386 789.71L299.585 777.815L315.229 765.01L330.328 751.311L344.911 736.766L359.028 721.456L372.754 705.506L386.186 689.074L399.438 672.346L412.631 655.522L425.878 638.788L439.29 622.322L452.953 606.269L466.945 590.754L481.321 575.87L496.115 561.671L511.335 548.171L526.761 535.008L542.477 522.321L558.244 509.717L573.959 497.03L589.54 484.12L604.926 470.892L620.091 457.302L635.041 443.358L649.814 429.125L664.481 414.718L679.141 400.299L693.91 386.06L708.913 372.203L724.256 358.905L740.009 346.279L756.195 334.361L772.807 323.144L789.812 312.57L807.144 302.533L824.71 292.879L842.387 283.408L860.013 273.853L877.406 263.916L894.399 253.323L910.859 241.855L926.698 229.371L941.888 215.82L956.452 201.244L970.47 185.772L984.067 169.611L997.404 153.024L1010.66 136.31L1024.04 119.783L1037.71 103.741L1051.83 88.4429L1066.53 74.083L1081.88 60.7904L1097.91 48.6277L1114.64 37.5935L1132.01 27.629L1149.96 18.5968L1168.33 10.2661L1186.95 2.33951L1205.61 -5.51796L1224.1 -13.6508L1242.23 -22.3878L1259.81 -32.0181L1276.7 -42.7708L1292.82 -54.7976L1308.13 -68.1596L1322.64 -82.82L1336.44 -98.6435L1349.67 -115.404L1362.52 -132.8L1375.45 -150.061L1388.38 -167.312L1401.66 -183.994" stroke="#E2E2E2" stroke-miterlimit="10"/>
<path d="M113.446 895.423L132.004 887.395L150.701 879.596L169.451 871.884L188.158 864.101L206.72 856.08L225.038 847.659L243.021 838.689L260.59 829.04L277.683 818.611L294.256 807.328L310.284 795.151L325.761 782.073L340.705 768.118L355.147 753.342L369.145 737.837L382.776 721.731L396.142 705.189L409.356 688.398L422.539 671.557L435.805 654.853L449.257 638.451L462.984 622.502L477.063 607.131L491.554 592.433L506.49 578.467L521.878 565.242L537.523 552.438L553.473 540.134L569.505 527.964L585.507 515.745L601.386 503.325L617.074 490.592L632.533 477.482L647.756 463.987L662.774 450.155L677.65 436.089L692.475 421.941L707.364 407.897L722.439 394.158L737.811 380.906L753.555 368.265L769.703 356.285L786.251 344.962L803.169 334.245L820.393 324.03L837.832 314.169L855.374 304.475L872.866 294.699L890.141 284.568L907.031 273.805L923.402 262.192L939.164 249.58L954.281 235.91L968.771 221.213L982.708 205.607L996.21 189.289L1009.43 172.513L1022.56 155.573L1035.77 138.78L1049.25 122.432L1063.17 106.794L1077.65 92.0737L1092.77 78.4152L1108.59 65.8965L1125.11 54.5314L1142.31 44.273L1160.1 34.9862L1178.34 26.4435L1196.86 18.3533L1215.46 10.3866L1233.92 2.20337L1252.05 -6.52351L1269.67 -16.0853L1286.64 -26.7173L1302.86 -38.5816L1318.28 -51.7539L1332.92 -66.2146L1346.84 -81.8468L1360.17 -98.4415L1373.09 -115.706L1385.94 -133.103L1398.77 -150.529L1411.92 -167.417" stroke="#E2E2E2" stroke-miterlimit="10"/>
<path d="M126.324 916.301L144.647 907.889L163.109 899.704L181.626 891.609L200.103 883.45L218.443 875.064L236.546 866.291L254.322 856.983L271.693 847.009L288.596 836.268L304.985 824.685L320.837 812.22L336.147 798.867L350.936 784.66L365.244 769.663L379.131 753.976L392.679 737.733L405.99 721.103L419.18 704.273L432.362 687.431L445.647 670.757L459.136 654.418L472.921 638.564L487.082 623.326L501.678 608.803L516.747 595.055L532.295 582.092L548.152 569.636L564.331 557.708L580.624 545.967L596.914 534.22L613.096 522.297L629.093 510.07L644.854 497.456L660.363 484.43L675.64 471.022L690.739 457.323L705.745 443.473L720.77 429.651L735.933 416.057L751.348 402.876L767.099 390.247L783.224 378.229L799.722 366.824L816.565 355.986L833.693 345.614L851.016 335.562L868.424 325.648L885.78 315.65L902.933 305.319L919.714 294.377L935.989 282.607L951.665 269.854L966.701 256.052L981.11 241.221L994.957 225.469L1008.36 208.982L1021.46 192.007L1034.44 174.83L1047.48 157.759L1060.77 141.093L1074.47 125.1L1088.71 110.002L1103.6 95.9594L1119.19 83.0651L1135.5 71.3494L1152.51 60.7764L1170.13 51.2154L1188.23 42.4459L1206.65 34.1847L1225.18 26.1109L1243.62 17.8906L1261.77 9.19959L1279.46 -0.254794L1296.54 -10.7141L1312.89 -22.3518L1328.47 -35.2587L1343.28 -49.4347L1357.37 -64.7842L1370.88 -81.1004L1383.91 -98.1839L1396.72 -115.644L1409.62 -132.952L1422.7 -149.955" stroke="#E2E2E2" stroke-miterlimit="10"/>
<path d="M139.186 937.175L157.259 928.352L175.468 919.753L193.734 911.247L211.965 902.685L230.065 893.906L247.938 884.755L265.494 875.086L282.656 864.769L299.359 853.701L315.559 841.807L331.232 829.049L346.376 815.423L361.015 800.97L375.195 785.764L388.979 769.91L402.455 753.549L415.725 736.85L428.898 719.993L442.082 703.154L455.383 686.506L468.903 670.218L482.738 654.446L496.97 639.325L511.662 624.958L526.852 611.409L542.548 598.689L558.606 586.563L575.007 574.998L591.557 563.678L608.131 552.399L624.618 540.975L640.926 529.259L656.996 517.152L672.8 504.609L688.347 491.645L703.683 478.334L718.886 464.805L734.062 451.232L749.329 437.809L764.805 424.728L780.581 412.14L796.701 400.114L813.167 388.657L829.952 377.723L846.999 367.218L864.219 356.998L881.505 346.885L898.734 336.678L915.755 326.13L932.424 315.006L948.598 303.07L964.183 290.167L979.132 276.222L993.453 261.247L1007.2 245.339L1020.49 228.673L1033.47 211.488L1046.29 194.064L1059.16 176.703L1072.25 159.706L1085.72 143.345L1099.73 127.854L1114.37 113.409L1129.72 100.12L1145.81 88.0331L1162.61 77.1239L1180.05 67.2687L1198.01 58.2569L1216.31 49.8162L1234.78 41.6356L1253.2 33.3889L1271.39 24.7555L1289.16 15.442L1306.37 5.20058L1322.9 -6.15367L1338.68 -18.7285L1353.71 -32.5442L1368.03 -47.5292L1381.73 -63.5218L1394.95 -80.2926L1407.91 -97.5039L1420.81 -114.816L1433.93 -131.754" stroke="#E2E2E2" stroke-miterlimit="10"/>
<path d="M152.048 958.048L169.857 948.792L187.799 939.756L205.8 930.815L223.771 921.825L241.617 912.631L259.247 903.082L276.572 893.033L293.515 882.357L310.012 870.95L326.018 858.738L341.51 845.683L356.491 831.79L370.987 817.102L385.047 801.7L398.741 785.696L412.156 769.236L425.394 752.485L438.553 735.604L451.735 718.762L465.046 702.13L478.589 685.879L492.464 670.172L506.755 655.149L521.531 640.919L536.83 627.548L552.661 615.049L568.907 603.231L585.518 592.011L602.317 581.1L619.171 570.279L635.96 559.349L652.581 548.147L668.964 536.553L685.069 524.504L700.896 511.997L716.48 499.094L731.893 485.91L747.236 472.61L762.624 459.385L778.181 446.436L794.004 433.925L810.14 421.925L826.594 410.448L843.341 399.452L860.325 388.843L877.46 378.483L894.641 368.197L911.747 357.788L928.653 347.053L945.199 335.726L961.271 323.623L976.761 310.565L991.62 296.471L1005.85 281.345L1019.5 265.273L1032.68 248.422L1045.52 231.018L1058.19 213.338L1070.87 195.679L1083.75 178.34L1097 161.601L1110.76 145.705L1125.15 130.843L1140.24 117.141L1156.09 104.663L1172.67 93.3969L1189.92 83.228L1207.72 73.9584L1225.91 65.3288L1244.31 57.04L1262.72 48.7745L1280.96 40.2164L1298.84 31.0717L1316.2 21.0867L1332.93 10.0646L1348.95 -2.11981L1364.24 -15.509L1378.83 -30.0507L1392.77 -45.6405L1406.24 -62.0241L1419.39 -78.9149L1432.43 -95.9859L1445.59 -112.86" stroke="#E2E2E2" stroke-miterlimit="10"/>
<path d="M164.932 978.981L182.466 969.273L200.131 959.781L217.854 950.384L235.552 940.947L253.135 931.32L270.512 921.355L287.596 910.911L304.312 899.863L320.596 888.106L336.405 875.57L351.719 862.222L366.542 848.069L380.903 833.16L394.855 817.579L408.469 801.445L421.836 784.903L435.045 768.104L448.188 751.196L461.363 734.341L474.675 717.711L488.231 701.481L502.134 685.82L516.474 670.874L531.319 656.759L546.713 643.543L562.666 631.242L579.083 619.704L595.893 608.81L612.93 598.288L630.056 587.912L647.141 577.468L664.073 566.775L680.769 555.694L697.18 544.146L713.293 532.109L729.136 519.629L744.773 506.81L760.297 493.808L775.822 480.807L791.483 468.028L807.376 455.63L823.552 443.696L840.018 432.238L856.749 421.215L873.691 410.537L890.761 400.069L907.855 389.641L924.857 379.061L941.643 368.127L958.077 356.617L974.051 344.353L989.448 331.14L1004.21 316.896L1018.35 301.614L1031.9 285.374L1044.96 268.331L1057.66 250.704L1070.18 232.761L1082.67 214.796L1095.34 197.109L1108.35 179.985L1121.86 163.675L1135.99 148.382L1150.82 134.252L1166.42 121.365L1182.77 109.722L1199.82 99.2201L1217.46 89.6773L1235.52 80.8486L1253.86 72.4482L1272.26 64.1681L1290.55 55.6981L1308.54 46.7442L1326.08 37.0465L1343.04 26.3963L1359.33 14.6507L1374.92 1.7542L1389.79 -12.312L1404.04 -27.4065L1417.78 -43.3378L1431.17 -59.8443L1444.4 -76.6157L1457.66 -93.3245" stroke="#E2E2E2" stroke-miterlimit="10"/>
<path d="M177.85 999.956L195.098 989.781L212.475 979.816L229.911 969.948L247.327 960.048L264.634 949.969L281.749 939.574L298.585 928.723L315.067 917.291L331.135 905.179L346.748 892.322L361.888 878.689L376.561 864.29L390.799 849.177L404.654 833.438L418.203 817.196L431.528 800.585L444.708 783.738L457.83 766.795L470.99 749.916L484.295 733.274L497.854 717.048L511.774 701.414L526.149 686.526L541.051 672.504L556.527 659.421L572.585 647.294L589.155 636.007L606.149 625.414L623.411 615.26L640.798 605.311L658.17 595.339L675.407 585.146L692.415 574.576L709.133 563.53L725.538 551.972L741.648 539.929L757.519 527.496L773.24 514.815L788.939 502.099L804.708 489.497L820.696 477.254L836.937 465.427L853.44 454.029L870.18 443.021L887.104 432.313L904.132 421.776L921.161 411.242L938.079 400.523L954.765 389.425L971.103 377.758L986.968 365.314L1002.28 351.955L1016.95 337.563L1030.99 322.128L1044.44 305.719L1057.38 288.483L1069.95 270.631L1082.3 252.423L1094.61 234.15L1107.07 216.113L1119.84 198.6L1133.09 181.871L1146.95 166.142L1161.52 151.572L1176.86 138.261L1192.97 126.223L1209.81 115.372L1227.27 105.541L1245.21 96.5031L1263.47 87.9857L1281.86 79.6921L1300.21 71.3182L1318.33 62.5704L1336.06 53.1834L1353.26 42.9363L1369.85 31.6678L1385.75 19.2863L1400.97 5.77785L1415.55 -8.76834L1429.6 -24.1912L1443.25 -40.2565L1456.7 -56.6736L1470.12 -73.1231" stroke="#E2E2E2" stroke-miterlimit="10"/>
<path d="M190.822 1021.02L207.777 1010.37L224.851 999.904L241.986 989.541L259.109 979.16L276.136 968.622L292.982 957.786L309.564 946.517L325.811 934.699L341.664 922.235L357.087 909.065L372.061 895.16L386.596 880.533L400.722 865.237L414.496 849.363L427.99 833.03L441.275 816.355L454.423 799.455L467.517 782.466L480.654 765.548L493.941 748.876L507.492 732.637L521.417 717.011L535.815 702.159L550.761 688.208L566.303 675.234L582.453 663.257L599.157 652.188L616.318 641.869L633.789 632.058L651.421 622.513L669.07 612.993L686.604 603.286L703.918 593.218L720.941 582.672L737.64 571.596L754.024 560.001L770.139 547.968L786.07 535.63L801.945 523.203L817.863 510.845L833.971 498.8L850.305 487.123L866.871 475.829L883.647 464.878L900.579 454.184L917.589 443.617L934.578 433.016L951.434 422.197L968.042 410.97L984.288 399.15L1000.07 386.573L1015.28 373.057L1029.88 358.527L1043.83 342.942L1057.17 326.368L1070 308.94L1082.43 290.862L1094.62 272.389L1106.74 253.808L1118.98 235.42L1131.52 217.517L1144.52 200.368L1158.11 184.196L1172.4 169.178L1187.47 155.431L1203.34 142.983L1219.95 131.766L1237.22 121.633L1255.03 112.373L1273.22 103.731L1291.6 95.4211L1310.01 87.1457L1328.26 78.6124L1346.19 69.5504L1363.65 59.7268L1380.54 48.9626L1396.78 37.1363L1412.36 24.2209L1427.3 10.2632L1441.69 -4.60733L1455.64 -20.185L1469.33 -36.201L1482.94 -52.3462" stroke="#E2E2E2" stroke-miterlimit="10"/>
<path d="M203.835 1042.16L220.477 1030.99L237.243 1020.02L254.073 1009.16L270.896 998.285L287.635 987.272L304.206 975.986L320.533 964.299L336.548 952.098L352.194 939.295L367.436 925.828L382.258 911.673L396.668 896.842L410.699 881.389L424.406 865.405L437.853 848.994L451.099 832.253L464.21 815.293L477.269 798.246L490.373 781.272L503.632 764.554L517.164 748.283L531.084 732.647L545.492 717.813L560.468 703.911L576.063 691.023L592.29 679.171L609.106 668.286L626.415 658.21L644.077 648.712L661.94 639.543L679.85 630.452L697.669 621.211L715.281 611.632L732.605 601.58L749.598 590.984L766.258 579.844L782.627 568.225L798.779 556.251L814.851 544.145L830.942 532.071L847.196 520.264L863.648 508.783L880.306 497.637L897.144 486.789L914.112 476.152L931.13 465.599L948.104 454.972L964.924 444.093L981.477 432.776L997.653 420.842L1013.35 408.128L1028.49 394.485L1043.01 379.831L1056.87 364.107L1070.12 347.373L1082.83 329.758L1095.13 311.459L1107.16 292.724L1119.1 273.838L1131.13 255.102L1143.43 236.812L1156.17 219.241L1169.49 202.626L1183.51 187.155L1198.31 172.962L1213.91 160.092L1230.3 148.496L1247.38 138.047L1265.04 128.554L1283.14 119.777L1301.52 111.443L1319.98 103.263L1338.36 94.9452L1356.49 86.2136L1374.22 76.8248L1391.43 66.5754L1408.02 55.3331L1423.98 43.0337L1439.3 29.6927L1454.04 15.4073L1468.31 0.354095L1482.27 -15.2208L1496.09 -31.0204" stroke="#E2E2E2" stroke-miterlimit="10"/>
<path d="M216.901 1063.37L233.225 1051.67L249.669 1040.18L266.182 1028.8L282.698 1017.42L299.143 1005.92L315.441 994.19L331.518 982.093L347.309 969.526L362.76 956.402L377.837 942.664L392.524 928.286L406.828 913.282L420.783 897.704L434.438 881.634L447.843 865.155L461.049 848.348L474.118 831.318L487.134 814.199L500.195 797.155L513.416 780.375L526.919 764.056L540.822 748.392L555.229 733.555L570.223 719.683L585.857 706.859L602.145 695.106L619.053 684.373L636.492 674.508L654.325 665.29L672.397 656.466L690.551 647.775L708.64 638.976L726.539 629.867L744.156 620.296L761.44 610.178L778.38 599.496L795.008 588.302L811.392 576.708L827.681 564.957L843.968 553.204L860.394 541.679L876.992 530.436L893.768 519.485L910.697 508.784L927.727 498.25L944.781 487.756L961.766 477.147L978.574 466.249L995.098 454.884L1011.23 442.874L1026.87 430.063L1041.94 416.319L1056.39 401.543L1070.18 385.697L1083.34 368.814L1095.94 351.022L1108.11 332.509L1119.98 313.519L1131.74 294.337L1143.56 275.26L1155.63 256.588L1168.11 238.6L1181.17 221.542L1194.91 205.617L1209.43 190.972L1224.78 177.671L1240.92 165.685L1257.8 154.907L1275.32 145.168L1293.33 136.244L1311.68 127.876L1330.2 119.782L1348.71 111.673L1367.04 103.269L1385.03 94.3121L1402.55 84.5874L1419.51 73.9352L1435.85 62.2628L1451.55 49.5545L1466.67 35.876L1481.28 21.3748L1495.52 6.2739L1509.58 -9.14175" stroke="#E2E2E2" stroke-miterlimit="10"/>
</svg>
