<svg width="582" height="50" viewBox="0 0 582 50" fill="none" xmlns="http://www.w3.org/2000/svg">
<path d="M0.780273 42.63V0.869999H5.04327V20.59L24.0963 0.869999H29.5483L10.0893 21.025L31.1433 42.63H25.5753L5.04327 21.75V42.63H0.780273Z" fill="#0A0C16"/>
<path d="M50.199 43.5C46.0423 43.5 42.5333 42.5817 39.672 40.745C36.8107 38.889 34.6453 36.3273 33.176 33.06C31.7067 29.7927 30.972 26.0227 30.972 21.75C30.972 17.4773 31.7067 13.7073 33.176 10.44C34.6453 7.17267 36.8107 4.62067 39.672 2.784C42.5333 0.928 46.0423 0 50.199 0C54.375 0 57.884 0.928 60.726 2.784C63.5873 4.62067 65.7527 7.17267 67.222 10.44C68.7107 13.7073 69.455 17.4773 69.455 21.75C69.455 26.0227 68.7107 29.7927 67.222 33.06C65.7527 36.3273 63.5873 38.889 60.726 40.745C57.884 42.5817 54.375 43.5 50.199 43.5ZM50.199 39.411C53.4663 39.411 56.1923 38.6667 58.377 37.178C60.5617 35.6893 62.1953 33.6207 63.278 30.972C64.38 28.304 64.931 25.23 64.931 21.75C64.931 18.27 64.38 15.2057 63.278 12.557C62.1953 9.90833 60.5617 7.83967 58.377 6.351C56.1923 4.86233 53.4663 4.10833 50.199 4.089C46.9317 4.089 44.2153 4.83333 42.05 6.322C39.8847 7.81067 38.251 9.889 37.149 12.557C36.0663 15.2057 35.5153 18.27 35.496 21.75C35.4767 25.23 36.0083 28.2943 37.091 30.943C38.193 33.5723 39.8363 35.641 42.021 37.149C44.2057 38.6377 46.9317 39.3917 50.199 39.411Z" fill="#0A0C16"/>
<path d="M75.2627 42.63V0.869999H79.1777L95.5917 35.989L111.919 0.869999H115.892V42.601H111.832V10.382L96.9547 42.63H94.1997L79.3517 10.382V42.63H75.2627Z" fill="#0A0C16"/>
<path d="M121.13 42.63L135.514 0.869999H141.169L155.553 42.63H151.116L137.457 3.248H139.139L125.567 42.63H121.13ZM127.539 32.509V28.507H149.115V32.509H127.539Z" fill="#0A0C16"/>
<path d="M160.79 42.63V0.869999H165.053V19.691H188.137V0.869999H192.371V42.63H188.137V23.78H165.053V42.63H160.79Z" fill="#0A0C16"/>
<path d="M198.552 49.59V38.541C200.176 38.541 201.481 38.135 202.467 37.323C203.453 36.4917 204.207 35.3897 204.729 34.017C205.251 32.6443 205.647 31.1073 205.918 29.406C206.189 27.6853 206.421 25.9453 206.614 24.186C206.885 21.6147 207.097 19.1303 207.252 16.733C207.426 14.3357 207.571 11.8513 207.687 9.28C207.822 6.70866 207.977 3.89566 208.151 0.840998L233.903 0.869999V38.541H236.89V49.59H232.656V42.63H202.815V49.59H198.552ZM206.701 38.541H229.64V4.959L212.124 4.93C212.008 7.28867 211.892 9.57 211.776 11.774C211.66 13.978 211.525 16.2013 211.37 18.444C211.215 20.6867 211.012 23.026 210.761 25.462C210.548 27.6853 210.297 29.6283 210.007 31.291C209.717 32.9537 209.311 34.3747 208.789 35.554C208.286 36.7333 207.59 37.729 206.701 38.541Z" fill="#0A0C16"/>
<path d="M240.359 42.63L254.743 0.869999H260.398L274.782 42.63H270.345L256.686 3.248H258.368L244.796 42.63H240.359ZM246.768 32.509V28.507H268.344V32.509H246.768Z" fill="#0A0C16"/>
<path d="M291.63 42.63V0.869999H323.617V42.63H319.354V4.959H295.893V42.63H291.63Z" fill="#0A0C16"/>
<path d="M331.731 42.63V0.869999H347.855C348.261 0.869999 348.716 0.889332 349.218 0.927998C349.74 0.947333 350.262 1.00533 350.784 1.102C352.969 1.43067 354.815 2.19433 356.323 3.393C357.851 4.57233 359.001 6.061 359.774 7.859C360.567 9.657 360.963 11.6483 360.963 13.833C360.963 15.9983 360.567 17.98 359.774 19.778C358.982 21.576 357.822 23.0743 356.294 24.273C354.786 25.4523 352.95 26.2063 350.784 26.535C350.262 26.6123 349.74 26.6703 349.218 26.709C348.716 26.7477 348.261 26.767 347.855 26.767H335.994V42.63H331.731ZM335.994 22.707H347.739C348.087 22.707 348.493 22.6877 348.957 22.649C349.421 22.6103 349.876 22.5427 350.32 22.446C351.751 22.1367 352.921 21.547 353.829 20.677C354.757 19.807 355.444 18.7727 355.888 17.574C356.352 16.3753 356.584 15.1283 356.584 13.833C356.584 12.5377 356.352 11.2907 355.888 10.092C355.444 8.874 354.757 7.83 353.829 6.96C352.921 6.09 351.751 5.50033 350.32 5.191C349.876 5.09433 349.421 5.03633 348.957 5.017C348.493 4.97833 348.087 4.959 347.739 4.959H335.994V22.707Z" fill="#0A0C16"/>
<path d="M383.642 43.5C379.486 43.5 375.977 42.5817 373.115 40.745C370.254 38.889 368.089 36.3273 366.619 33.06C365.15 29.7927 364.415 26.0227 364.415 21.75C364.415 17.4773 365.15 13.7073 366.619 10.44C368.089 7.17267 370.254 4.62067 373.115 2.784C375.977 0.928 379.486 0 383.642 0C387.818 0 391.327 0.928 394.169 2.784C397.031 4.62067 399.196 7.17267 400.665 10.44C402.154 13.7073 402.898 17.4773 402.898 21.75C402.898 26.0227 402.154 29.7927 400.665 33.06C399.196 36.3273 397.031 38.889 394.169 40.745C391.327 42.5817 387.818 43.5 383.642 43.5ZM383.642 39.411C386.91 39.411 389.636 38.6667 391.82 37.178C394.005 35.6893 395.639 33.6207 396.721 30.972C397.823 28.304 398.374 25.23 398.374 21.75C398.374 18.27 397.823 15.2057 396.721 12.557C395.639 9.90833 394.005 7.83967 391.82 6.351C389.636 4.86233 386.91 4.10833 383.642 4.089C380.375 4.089 377.659 4.83333 375.493 6.322C373.328 7.81067 371.694 9.889 370.592 12.557C369.51 15.2057 368.959 18.27 368.939 21.75C368.92 25.23 369.452 28.2943 370.534 30.943C371.636 33.5723 373.28 35.641 375.464 37.149C377.649 38.6377 380.375 39.3917 383.642 39.411Z" fill="#0A0C16"/>
<path d="M408.706 42.63V0.869999H474.806V4.959H412.969V19.401H471.326V23.49H412.969V38.541H474.806V42.63H408.706Z" fill="#0A0C16"/>
<path d="M481.784 42.63V0.869999H486.047V20.59L505.1 0.869999H510.552L491.093 21.025L512.147 42.63H506.579L486.047 21.75V42.63H481.784Z" fill="#0A0C16"/>
<path d="M527.329 42.63V4.959H512.742V0.869999H546.179V4.959H531.592V42.63H527.329Z" fill="#0A0C16"/>
<path d="M546.796 42.63L561.18 0.869999H566.835L581.219 42.63H576.782L563.123 3.248H564.805L551.233 42.63H546.796ZM553.205 32.509V28.507H574.781V32.509H553.205Z" fill="#0A0C16"/>
</svg>
